<svg width="20" height="15" viewBox="0 0 20 15" fill="none" xmlns="http://www.w3.org/2000/svg">
<path d="M14 14V12.6667C14 11.9594 13.6576 11.2811 13.0481 10.781C12.4386 10.281 11.612 10 10.75 10H4.25C3.38805 10 2.5614 10.281 1.9519 10.781C1.34241 11.2811 1 11.9594 1 12.6667V14" stroke="#C4C4C4" stroke-width="1.4" stroke-linecap="round" stroke-linejoin="round"/>
<path d="M7 7C8.65685 7 10 5.65685 10 4C10 2.34315 8.65685 1 7 1C5.34315 1 4 2.34315 4 4C4 5.65685 5.34315 7 7 7Z" stroke="#C4C4C4" stroke-width="1.4" stroke-linecap="round" stroke-linejoin="round"/>
<path d="M19 14V12.6371C18.9993 12.0332 18.7044 11.4465 18.1614 10.9692C17.6184 10.4919 16.8581 10.151 16 10" stroke="#C4C4C4" stroke-width="1.4" stroke-linecap="round" stroke-linejoin="round"/>
<path d="M13 2C13.8582 2.17056 14.6188 2.55796 15.162 3.10114C15.7052 3.64432 16 4.31238 16 5C16 5.68762 15.7052 6.35567 15.162 6.89886C14.6188 7.44204 13.8582 7.82944 13 8" stroke="#C4C4C4" stroke-width="1.4" stroke-linecap="round" stroke-linejoin="round"/>
</svg>
