<svg width="21" height="20" viewBox="0 0 21 20" fill="none" xmlns="http://www.w3.org/2000/svg">
<g clip-path="url(#clip0_11_16)">
<path fill-rule="evenodd" clip-rule="evenodd" d="M9 4C7.89543 4 7 4.89543 7 6V16C7 17.1046 7.89543 18 9 18H19C20.1046 18 21 17.1046 21 16V6C21 4.89543 20.1046 4 19 4H9ZM12 6C11.4477 6 11 6.44772 11 7V15C11 15.5523 11.4477 16 12 16C12.5523 16 13 15.5523 13 15V7C13 6.44772 12.5523 6 12 6Z" fill="#109CF1"/>
</g>
<defs>
<clipPath id="clip0_11_16">
<rect width="14" height="14" fill="white" transform="translate(7 4)"/>
</clipPath>
</defs>
</svg>
