<svg width="20" height="20" viewBox="0 0 20 20" fill="none" xmlns="http://www.w3.org/2000/svg">
<g clip-path="url(#clip0_5_6)">
<path d="M6.81111 6.11111C6.81111 4.3491 8.23799 2.92222 10 2.92222C11.762 2.92222 13.1889 4.3491 13.1889 6.11111C13.1889 7.87313 11.762 9.3 10 9.3C8.23799 9.3 6.81111 7.87313 6.81111 6.11111ZM2.92222 14.8611C2.92222 14.4717 3.11175 14.0788 3.54722 13.6769C3.98745 13.2705 4.63072 12.904 5.39798 12.5967C6.93363 11.9815 8.78959 11.6722 10 11.6722C11.2104 11.6722 13.0664 11.9815 14.602 12.5967C15.3693 12.904 16.0125 13.2705 16.4528 13.6769C16.8883 14.0788 17.0778 14.4717 17.0778 14.8611V17.0778H2.92222V14.8611Z" stroke="#C2CFE0" stroke-width="1.4"/>
</g>
<defs>
<clipPath id="clip0_5_6">
<rect width="20" height="20" fill="white"/>
</clipPath>
</defs>
</svg>
